<?xml version="1.0" standalone="no"?>
<!DOCTYPE svg PUBLIC "-//W3C//DTD SVG 20010904//EN"
 "http://www.w3.org/TR/2001/REC-SVG-20010904/DTD/svg10.dtd">
<svg version="1.0" xmlns="http://www.w3.org/2000/svg"
 width="1244.000000pt" height="1280.000000pt" viewBox="0 0 1244.000000 1280.000000"
 preserveAspectRatio="xMidYMid meet">
<metadata>
Created by potrace 1.15, written by Peter Selinger 2001-2017
</metadata>
<g transform="translate(0.000000,1280.000000) scale(0.100000,-0.100000)"
fill="#000000" stroke="none">
<path d="M1668 11380 c-266 -90 -554 -300 -774 -562 -120 -144 -182 -272 -198
-409 -9 -69 13 -177 48 -248 15 -28 56 -120 92 -204 188 -433 409 -807 745
-1262 218 -295 415 -530 810 -965 335 -368 789 -812 1589 -1550 511 -471 1046
-1003 1079 -1073 73 -152 266 -356 1474 -1557 307 -305 563 -563 568 -573 6
-10 24 -66 40 -125 32 -116 135 -336 215 -462 26 -41 93 -135 148 -209 56 -74
118 -159 139 -190 118 -170 346 -402 627 -636 316 -263 326 -270 358 -259 23
9 32 6 62 -18 87 -69 459 -188 586 -188 41 0 60 10 127 69 43 38 35 61 -38
120 -36 29 -65 54 -65 56 0 2 44 -16 98 -40 71 -32 102 -40 115 -34 25 14 21
42 -10 61 -39 23 -95 84 -68 74 11 -4 50 -19 87 -33 116 -43 131 -12 33 68
-36 29 -65 54 -65 55 0 5 127 -43 159 -60 31 -17 35 -17 50 -1 15 15 12 20
-39 66 -46 41 -50 48 -26 39 16 -6 36 -8 43 -6 8 3 33 -4 55 -15 33 -17 42
-18 49 -7 14 22 10 38 -16 61 -20 18 -22 24 -11 34 10 8 23 7 56 -8 32 -15 46
-16 56 -8 20 17 17 35 -9 56 -12 10 -23 28 -24 40 l-2 23 51 -26 c27 -14 56
-23 64 -20 18 7 18 42 0 49 -7 3 -27 26 -44 50 l-30 45 78 -35 c44 -20 86 -33
95 -30 25 10 17 35 -21 64 -65 50 -104 85 -104 93 0 5 46 -13 102 -40 87 -42
105 -47 117 -36 20 21 5 49 -44 85 -58 42 -63 52 -20 40 19 -6 40 -7 45 -4 5
3 27 -6 49 -21 39 -26 71 -27 71 -3 0 7 -18 29 -39 49 l-40 38 37 -3 c20 -1
52 -8 70 -15 28 -11 36 -10 48 2 14 13 12 19 -10 45 -14 17 -26 38 -26 46 0
14 6 13 43 -3 23 -11 50 -20 60 -20 29 0 32 29 6 58 -69 76 -69 75 9 41 39
-17 78 -29 86 -26 30 12 17 45 -33 81 -99 73 -91 74 83 7 21 -9 32 -8 42 0 25
20 15 36 -51 89 -36 28 -65 53 -65 55 0 2 43 -14 96 -36 52 -22 99 -37 105
-34 19 13 8 46 -28 79 l-38 34 40 -8 c22 -4 52 -13 67 -20 54 -25 82 22 33 54
-14 9 -25 23 -25 32 0 16 14 14 79 -12 25 -11 37 -11 47 -3 19 16 18 21 -16
64 -17 21 -29 40 -26 42 2 2 26 -5 54 -16 59 -23 82 -19 82 15 0 16 -11 31
-35 46 -33 22 -53 48 -36 48 4 0 35 -11 69 -25 33 -14 68 -22 77 -19 30 12 17
49 -30 84 -25 18 -43 35 -41 37 2 2 35 -8 75 -23 58 -21 74 -24 86 -14 25 20
17 37 -31 75 -55 42 -52 43 36 11 50 -18 70 -22 79 -13 19 19 12 45 -21 71
l-33 26 26 0 c15 0 43 -7 64 -15 28 -12 40 -13 51 -4 22 18 17 35 -17 64 -17
14 -29 29 -25 32 3 3 31 -2 61 -12 51 -18 56 -18 71 -3 15 15 13 20 -27 64
-28 30 -37 45 -24 40 91 -37 118 -46 126 -41 19 12 8 52 -21 80 -16 16 -28 30
-26 32 2 2 28 -6 59 -18 98 -37 119 1 40 71 -27 23 -41 40 -33 37 8 -3 46 -16
83 -28 l68 -23 34 39 c26 31 34 49 35 80 0 37 -5 45 -87 123 -92 87 -141 124
-183 137 -14 4 -36 17 -50 30 -31 27 -142 84 -195 100 -30 9 -55 30 -104 86
-121 141 -616 643 -876 887 -143 135 -310 293 -370 351 -273 263 -843 818
-1075 1047 -140 139 -282 274 -315 302 -33 27 -104 95 -158 150 -54 55 -109
103 -122 106 -13 3 -26 14 -30 25 -5 16 -277 280 -624 605 -64 60 -155 132
-231 181 -166 109 -330 266 -1350 1292 -840 845 -1009 1007 -1354 1307 -481
417 -887 699 -1565 1086 -443 253 -846 461 -1019 526 -90 34 -181 32 -294 -6z"/>
</g>
</svg>
