<?xml version="1.0" standalone="no"?>
<!DOCTYPE svg PUBLIC "-//W3C//DTD SVG 20010904//EN"
 "http://www.w3.org/TR/2001/REC-SVG-20010904/DTD/svg10.dtd">
<svg version="1.0" xmlns="http://www.w3.org/2000/svg"
 width="640.000000pt" height="214.000000pt" viewBox="0 0 1280.000000 427.000000"
 preserveAspectRatio="xMidYMid meet">
<metadata>
Created by potrace 1.15, written by Peter Selinger 2001-2017
</metadata>
<g transform="translate(0.000000,427.000000) scale(0.100000,-0.100000)"
fill="#000000" stroke="none">
<path d="M6425 4256 c-105 -26 -120 -41 -203 -195 -66 -126 -66 -126 -267
-327 -223 -223 -450 -433 -583 -539 -49 -38 -133 -115 -188 -170 -54 -56 -157
-152 -228 -215 -145 -129 -219 -212 -267 -303 -18 -34 -64 -105 -103 -157 -76
-101 -135 -208 -211 -384 -40 -93 -48 -121 -51 -190 -5 -90 -31 -196 -48 -195
-6 0 -40 45 -76 101 -75 115 -179 226 -265 283 -179 118 -536 168 -740 105
-131 -41 -265 -127 -363 -234 -163 -179 -225 -413 -174 -656 39 -187 79 -255
206 -358 87 -70 193 -125 286 -148 162 -41 405 15 527 121 86 73 149 258 141
414 -8 182 -140 322 -332 352 -116 18 -220 -14 -289 -90 -52 -58 -70 -105 -64
-172 11 -130 104 -219 228 -219 46 0 97 34 127 85 32 55 27 136 -11 194 l-27
41 54 0 c64 0 103 -26 139 -94 45 -85 19 -249 -57 -349 -62 -82 -186 -144
-307 -154 -154 -13 -339 90 -410 228 -31 62 -59 184 -59 260 0 91 24 212 56
276 32 66 170 208 239 245 28 15 63 38 78 50 23 18 47 24 115 30 298 22 397 2
554 -114 136 -100 223 -221 252 -349 9 -37 18 -153 22 -274 7 -236 1 -275 -59
-389 -84 -158 -347 -365 -554 -437 -109 -37 -393 -89 -488 -89 -101 0 -240 20
-330 48 -185 58 -365 169 -426 263 -17 27 -46 62 -64 77 -50 42 -65 73 -71
148 -8 91 -23 114 -74 114 -52 0 -65 -20 -91 -146 -11 -54 -31 -121 -43 -149
-45 -100 -180 -231 -297 -290 -75 -39 -155 -54 -390 -75 -123 -11 -251 -25
-284 -31 -115 -21 -281 -12 -272 14 2 7 50 48 108 92 231 177 371 342 425 500
64 189 15 434 -112 562 -66 65 -162 108 -245 108 -56 0 -73 -5 -115 -30 -71
-45 -106 -106 -111 -198 -4 -61 -1 -79 19 -117 34 -66 93 -103 173 -108 60 -4
66 -2 93 24 16 16 37 52 46 79 10 28 23 62 28 78 11 28 48 39 48 13 0 -7 12
-40 26 -72 37 -84 30 -177 -25 -332 -53 -145 -64 -167 -120 -224 -25 -25 -65
-69 -88 -96 -47 -55 -117 -96 -288 -166 -60 -24 -137 -57 -170 -72 -53 -24
-76 -28 -198 -33 -130 -6 -140 -8 -158 -30 -35 -43 -14 -134 34 -146 13 -4
115 -1 228 6 112 7 290 14 394 15 265 4 642 11 955 19 146 3 594 10 995 14
676 8 737 10 820 29 236 52 442 167 603 336 98 104 163 207 219 347 36 90 38
99 39 222 1 123 2 128 27 151 18 16 27 38 32 72 37 282 53 348 124 504 32 69
68 151 81 183 13 33 48 98 78 145 30 48 72 121 94 162 49 90 113 172 203 260
37 36 102 108 145 161 75 91 165 177 238 229 19 12 47 44 62 69 30 49 61 76
120 106 19 9 87 70 150 134 64 64 138 137 165 162 82 77 118 126 113 154 -8
39 16 52 58 32 19 -10 41 -17 48 -17 21 0 154 148 181 201 26 50 67 89 94 89
30 0 59 29 84 84 36 79 57 96 117 96 61 0 107 -18 141 -56 14 -16 69 -91 122
-166 54 -75 123 -165 154 -200 121 -135 240 -250 275 -269 25 -13 38 -28 43
-48 8 -37 91 -131 220 -249 107 -97 154 -150 200 -222 16 -25 75 -92 130 -150
125 -130 187 -212 276 -363 39 -65 90 -142 115 -172 34 -43 44 -63 44 -92 0
-38 10 -66 90 -278 23 -60 51 -138 62 -173 21 -66 40 -85 76 -75 29 7 36 39
29 122 -8 92 -27 164 -104 390 -53 153 -78 211 -117 270 -28 42 -73 121 -101
175 -44 88 -57 104 -108 140 -38 27 -76 68 -114 121 -31 44 -88 118 -127 165
-39 47 -116 139 -171 205 -55 66 -139 158 -186 205 -47 47 -111 117 -141 155
-31 39 -114 127 -185 196 -103 100 -147 151 -213 250 -153 229 -256 338 -341
363 -61 19 -95 19 -164 2z"/>
<path d="M6462 3825 c-17 -14 -40 -46 -53 -71 -20 -42 -21 -56 -16 -158 10
-189 -6 -297 -79 -539 -18 -59 -18 -59 10 -172 15 -63 25 -119 21 -124 -8 -14
-94 29 -161 80 -68 52 -127 77 -213 89 -105 15 -179 4 -214 -32 -23 -23 -28
-34 -22 -56 16 -65 74 -112 137 -112 57 0 83 -17 107 -71 17 -36 42 -64 94
-107 81 -66 131 -127 181 -222 81 -156 117 -309 141 -600 8 -107 20 -242 25
-299 7 -74 7 -108 -1 -117 -20 -25 -46 3 -105 113 -102 194 -151 257 -294 388
-73 66 -166 155 -206 198 -79 84 -193 246 -240 343 -27 54 -29 68 -29 172 0
123 -1 126 -62 138 -66 13 -159 -66 -183 -156 -26 -98 -16 -276 21 -376 12
-30 45 -87 75 -127 61 -82 61 -85 -26 -112 -77 -24 -129 -56 -179 -110 -75
-81 -102 -173 -61 -210 21 -19 34 -18 135 8 213 53 249 60 316 54 83 -7 156
-36 301 -119 245 -140 386 -328 460 -616 27 -106 30 -136 35 -328 l6 -211 -40
-44 c-51 -56 -63 -79 -63 -122 0 -71 40 -146 93 -174 43 -22 142 -22 187 1 44
23 88 63 106 98 23 43 18 110 -11 149 -61 84 -68 107 -76 249 -14 217 14 388
87 535 43 89 175 267 240 324 59 52 130 89 244 127 78 26 97 28 240 29 145 0
158 -2 200 -24 25 -13 60 -37 78 -52 26 -23 42 -29 80 -29 69 0 92 20 92 79 0
152 -102 268 -277 317 -46 12 -63 22 -63 34 0 19 37 77 83 130 73 83 110 254
88 401 -22 138 -102 269 -165 269 -60 0 -71 -25 -71 -159 -1 -102 -4 -124 -27
-179 -52 -126 -88 -172 -299 -382 -322 -321 -450 -475 -501 -602 -26 -64 -36
-78 -55 -78 -16 0 -16 5 5 195 6 55 16 161 21 235 10 132 54 368 87 466 23 70
49 117 101 187 25 34 57 89 72 122 45 98 108 149 218 174 30 8 80 32 120 59
55 38 71 55 82 89 13 36 13 44 -1 65 -30 45 -139 58 -313 37 -113 -14 -177
-38 -239 -89 -26 -22 -55 -40 -63 -40 -22 0 -12 51 28 141 l32 73 -23 76 c-42
137 -50 203 -59 450 -5 135 -14 262 -20 282 -21 69 -85 88 -139 43z"/>
<path d="M9278 2129 c-148 -16 -255 -63 -386 -173 -198 -166 -267 -269 -297
-441 -9 -53 -18 -187 -22 -325 -7 -258 2 -329 54 -455 55 -131 200 -312 343
-428 88 -71 255 -155 382 -191 153 -44 463 -59 742 -35 76 6 155 8 175 5 42
-8 529 -29 646 -29 44 0 249 2 455 3 279 2 389 0 429 -10 37 -9 84 -10 155 -5
55 4 144 5 196 3 52 -1 190 -3 305 -3 179 0 217 3 257 18 60 23 88 58 88 108
0 69 -25 86 -190 124 -383 89 -531 189 -662 452 -47 93 -50 104 -39 134 6 17
11 72 11 120 0 85 12 121 25 79 8 -27 47 -46 120 -59 94 -18 130 -14 165 15
75 63 100 197 51 279 -31 52 -123 125 -186 147 -107 37 -175 19 -265 -72 -111
-111 -158 -239 -146 -400 9 -123 40 -241 92 -349 36 -75 61 -109 122 -171 42
-42 104 -92 137 -111 45 -27 62 -43 69 -66 16 -58 8 -63 -103 -63 -103 0 -235
21 -411 65 -321 81 -597 264 -626 416 -12 62 -70 149 -100 149 -24 0 -101
-115 -114 -170 -9 -39 -21 -57 -48 -78 -19 -15 -72 -61 -117 -103 -133 -123
-227 -171 -398 -204 -190 -37 -515 -28 -702 20 -178 45 -351 146 -501 291 -83
80 -134 163 -175 281 -33 96 -34 101 -34 268 0 148 3 180 23 250 51 177 151
306 314 403 170 103 182 106 353 106 137 -1 157 -3 228 -28 52 -19 83 -36 95
-53 9 -14 28 -35 41 -47 100 -89 121 -112 144 -159 91 -187 27 -484 -128 -596
-155 -111 -357 -101 -502 24 -47 40 -68 95 -58 148 3 18 18 67 32 109 26 78
46 96 36 34 -8 -48 15 -132 44 -167 37 -44 77 -61 145 -60 103 0 160 40 219
151 33 63 34 186 1 248 -50 94 -152 163 -254 170 -46 4 -74 -2 -145 -28 -121
-43 -176 -75 -229 -132 -240 -257 -62 -736 307 -823 194 -45 383 12 544 166
97 94 165 201 211 336 67 198 64 338 -11 490 -97 196 -234 327 -421 400 -65
25 -78 27 -244 28 -96 0 -205 -3 -242 -6z"/>
<path d="M5368 1360 c-63 -11 -151 -52 -204 -95 -94 -77 -164 -227 -164 -349
0 -73 41 -231 78 -299 88 -163 282 -228 452 -151 93 41 131 95 145 200 9 68
-9 127 -53 176 -85 94 -196 103 -290 23 -46 -38 -73 -97 -81 -174 l-6 -66 -32
31 c-22 22 -33 44 -38 78 -12 76 -1 196 22 248 90 200 375 273 555 142 63 -45
112 -113 143 -199 57 -158 53 -274 -15 -410 -109 -222 -281 -310 -600 -310
-154 1 -240 20 -368 81 -124 60 -298 246 -386 414 -35 67 -86 230 -105 335 -6
33 -17 66 -25 74 -16 16 -61 8 -69 -11 -10 -28 12 -385 28 -443 36 -134 120
-269 250 -400 205 -207 348 -253 740 -240 314 11 418 47 565 195 181 181 256
424 205 665 -31 146 -129 292 -266 397 -118 90 -141 98 -299 97 -74 -1 -156
-5 -182 -9z"/>
<path d="M7225 1275 c-80 -22 -211 -94 -250 -136 -42 -46 -105 -169 -142 -276
-23 -66 -27 -94 -27 -188 0 -94 4 -121 28 -190 57 -165 142 -288 245 -354 27
-18 100 -53 163 -78 99 -41 122 -46 183 -46 39 1 176 1 306 1 l237 0 75 35
c107 50 184 105 263 190 70 75 87 103 168 282 58 128 70 187 63 297 -6 90 -18
128 -42 128 -25 0 -42 -28 -90 -147 -51 -130 -121 -265 -162 -313 -14 -18 -49
-45 -77 -61 -28 -16 -82 -56 -121 -89 -196 -167 -410 -206 -670 -119 -49 17
-110 42 -135 56 -74 44 -158 130 -190 197 -36 76 -65 238 -55 312 10 81 59
168 139 249 77 78 124 101 226 111 66 7 207 -17 258 -44 47 -24 106 -101 133
-172 36 -96 22 -228 -29 -282 -41 -45 -48 -37 -47 58 l0 85 -41 38 c-48 46
-121 67 -192 56 -121 -18 -187 -181 -132 -328 23 -61 78 -130 124 -155 24 -13
56 -17 136 -17 130 1 185 22 258 99 90 95 132 196 132 317 0 226 -181 426
-437 483 -86 19 -229 19 -298 1z"/>
</g>
</svg>
