<?xml version="1.0" encoding="utf-8"?>
<svg xml:space="preserve" viewBox="0 0 100 100" y="0" x="0" xmlns="http://www.w3.org/2000/svg" id="圖層_1" version="1.1" style="height: 100%; width: 100%; background: rgba(255, 255, 255, 0); shape-rendering: auto;" width="200px" height="200px"><g class="ldl-scale" style="transform-origin: 50% 50%; transform: rotate(0deg) scale(1, 1);"><g class="ldl-ani" style="transform-origin: 50px 50px; transform: rotate(0deg); animation: 0.819672s linear 0s infinite normal forwards running spin-593d4f96-f21b-4c0d-9db7-57b72597639d;"><g class="ldl-layer"><g class="ldl-ani" style="transform-origin: 50px 50px;"><g><g class="ldl-layer"><g class="ldl-ani" style="transform-origin: 50px 50px;"><path stroke-miterlimit="10" stroke-width="2.582" stroke="#333" fill="#e6e6e6" d="M76.43 10L42.82 68.214c9.228-3.126 19.044-11.685 26.029-23.782C75.832 32.335 78.336 19.555 76.43 10z" style="fill: rgb(230, 230, 230); stroke: rgb(51, 51, 51);"></path></g></g><g class="ldl-layer"><g class="ldl-ani" style="transform-origin: 50px 50px;"><path d="M76.43 10L31.546 87.74" stroke-miterlimit="10" stroke-width="2.582" stroke="#333" fill="none" style="stroke: rgb(51, 51, 51);"></path></g></g><g class="ldl-layer"><g class="ldl-ani" style="transform-origin: 50px 50px;"><path stroke-miterlimit="10" stroke-width="2.582" stroke="#333" fill="none" d="M25.374 89.394h0a4.518 4.518 0 0 0 6.172-1.654l7.066-12.239-2.964-1.711a5.938 5.938 0 0 0-8.11 2.173l-3.937 6.818a4.843 4.843 0 0 0 1.773 6.613z" style="stroke: rgb(51, 51, 51);"></path></g></g></g></g></g><g class="ldl-layer"><g class="ldl-ani" style="transform-origin: 50px 50px;"><g><g class="ldl-layer"><g class="ldl-ani" style="transform-origin: 50px 50px;"><path stroke-miterlimit="10" stroke-width="2.582" stroke="#333" fill="#e6e6e6" d="M23.57 10l33.61 58.214c-9.228-3.126-19.044-11.685-26.029-23.782S21.664 19.555 23.57 10z" style="fill: rgb(230, 230, 230); stroke: rgb(51, 51, 51);"></path></g></g><g class="ldl-layer"><g class="ldl-ani" style="transform-origin: 50px 50px;"><path d="M23.57 10l44.884 77.74" stroke-miterlimit="10" stroke-width="2.582" stroke="#333" fill="none" style="stroke: rgb(51, 51, 51);"></path></g></g><g class="ldl-layer"><g class="ldl-ani" style="transform-origin: 50px 50px;"><path stroke-miterlimit="10" stroke-width="2.582" stroke="#333" fill="none" d="M74.626 89.394h0a4.518 4.518 0 0 1-6.172-1.654l-7.066-12.239 2.964-1.711a5.938 5.938 0 0 1 8.11 2.173l3.937 6.818a4.843 4.843 0 0 1-1.773 6.613z" style="stroke: rgb(51, 51, 51);"></path></g></g></g></g></g><g class="ldl-layer"><g class="ldl-ani" style="transform-origin: 50px 50px;"><circle stroke-miterlimit="10" stroke-width="2.519" stroke="#333" fill="#e6e6e6" r="3.227" cy="59.444" cx="49.958" style="fill: rgb(230, 230, 230); stroke: rgb(51, 51, 51);"></circle></g></g><metadata xmlns:d="https://loading.io/stock/"><d:name>scissor</d:name><d:tags>scissor,clipper,shear,trimmer,knife,cut,amputate</d:tags><d:license>by</d:license><d:slug>yhci12</d:slug></metadata></g></g><style id="spin-593d4f96-f21b-4c0d-9db7-57b72597639d" data-anikit="">@keyframes spin-593d4f96-f21b-4c0d-9db7-57b72597639d
{
  0% {
    animation-timing-function: cubic-bezier(0.5856,0.0703,0.4143,0.9297);
    transform: rotate(0deg);
  }
  100% {
    transform: rotate(360deg);
  }
}</style><!-- [ldio] generated by https://loading.io/ --></svg>